<svg xmlns="http://www.w3.org/2000/svg" viewBox="0 0 400 300" width="406" height="306" class="illustration styles_illustrationTablet__1DWOa"><g id="_496_consulting_outline" data-name="#496_consulting_outline"><path d="M265.66,71.47A23.28,23.28,0,0,0,258,69a23.9,23.9,0,0,0-19.87,6.78c-6,6.08-8.93,16.16-10,24.42a313.77,313.77,0,0,0-2.51,33.27,14.14,14.14,0,0,0,.64,3.28s13.58,12.81,43.09,9.18c9.24-1.14,18.58-1.55,27.86-2.65-1.14-7.73-.57-15.63-1.61-23.29-.88-6.43-1.93-12.84-2.53-19.39s-1.08-15.23-7.3-19a11.73,11.73,0,0,0-10.35-.81A23.84,23.84,0,0,0,265.66,71.47Z" fill="#725858"></path><path d="M258.93,147.59c-22.4,0-32.91-9.63-33.4-10.1a1,1,0,0,1-.27-.43,13.85,13.85,0,0,1-.69-3.61,313.89,313.89,0,0,1,2.52-33.37c.85-6.29,3.31-17.91,10.32-25A25,25,0,0,1,258.13,68a24.17,24.17,0,0,1,8,2.56h0a25.13,25.13,0,0,1,9.69,9,12.8,12.8,0,0,1,10.43,1.18c6.35,3.85,7.13,12.51,7.69,18.82l.09,1c.44,4.79,1.13,9.59,1.79,14.23.25,1.71.49,3.41.73,5.11.51,3.77.64,7.65.77,11.4a105.41,105.41,0,0,0,.84,11.88,1,1,0,0,1-.87,1.14c-4.51.54-9.1.91-13.53,1.28-4.71.38-9.58.78-14.32,1.37A86.34,86.34,0,0,1,258.93,147.59ZM227.09,136.2c1.72,1.46,15.28,12,42.09,8.74,4.79-.59,9.68-1,14.4-1.38,4.09-.33,8.3-.68,12.45-1.15-.47-3.7-.6-7.45-.72-11.09a110.26,110.26,0,0,0-.75-11.19c-.24-1.7-.48-3.4-.73-5.09-.67-4.67-1.36-9.49-1.8-14.34l-.09-1c-.56-6.22-1.25-14-6.74-17.29a10.74,10.74,0,0,0-9.45-.74,1,1,0,0,1-1.25-.43,23,23,0,0,0-9.31-8.94A22.14,22.14,0,0,0,257.86,70a23,23,0,0,0-19,6.49c-6.59,6.68-8.94,17.81-9.76,23.85a312.83,312.83,0,0,0-2.5,33.17A11.31,11.31,0,0,0,227.09,136.2Z" fill="#093f68"></path><path d="M246.15,142.49H268A15.52,15.52,0,0,1,283.55,158v26.42a0,0,0,0,1,0,0H230.64a0,0,0,0,1,0,0V158A15.52,15.52,0,0,1,246.15,142.49Z" fill="#ffbc0e"></path><path d="M283.55,185.43H230.64a1,1,0,0,1-1-1V158a16.54,16.54,0,0,1,16.51-16.52H268A16.54,16.54,0,0,1,284.55,158v26.42A1,1,0,0,1,283.55,185.43Zm-51.91-2h50.91V158A14.54,14.54,0,0,0,268,143.49H246.15A14.54,14.54,0,0,0,231.64,158Z" fill="#093f68"></path><polygon points="261.02 143.94 254.15 172.82 252.22 144.55 261.02 143.94" fill="#fff"></polygon><path d="M254.15,173.82h-.09a1,1,0,0,1-.91-.93l-1.93-28.27a1,1,0,0,1,.93-1.06l8.8-.62a1,1,0,0,1,.83.35,1,1,0,0,1,.21.88l-6.87,28.88A1,1,0,0,1,254.15,173.82Zm-.87-28.34,1.42,20.71,5-21.16Z" fill="#093f68"></path><path d="M255.78,140H257a3.54,3.54,0,0,1,3.54,3.54v4.79a0,0,0,0,1,0,0h-8.33a0,0,0,0,1,0,0v-4.79A3.54,3.54,0,0,1,255.78,140Z" transform="translate(505.06 301.28) rotate(-177.05)" fill="#ffc9b0"></path><path d="M257,149.34h-.24l-1.25-.06h0a4.55,4.55,0,0,1-4.3-4.77l.25-4.78a1,1,0,0,1,1.05-.95l8.31.43a1,1,0,0,1,.95,1.05l-.25,4.78a4.54,4.54,0,0,1-4.52,4.31Zm-1.39-2.07,1.25.06a2.43,2.43,0,0,0,1.83-.65,2.5,2.5,0,0,0,.84-1.75l.19-3.79-6.32-.32-.19,3.79a2.53,2.53,0,0,0,2.4,2.66Z" fill="#093f68"></path><ellipse cx="236.15" cy="118.13" rx="6.97" ry="6.24" transform="translate(106.03 347.9) rotate(-87.05)" fill="#ffc9b0"></ellipse><path d="M236.09,126.1h-.35a6.88,6.88,0,0,1-5-2.64,8.56,8.56,0,0,1,.58-11.18,6.78,6.78,0,0,1,10.3.53A8.55,8.55,0,0,1,241,124,6.91,6.91,0,0,1,236.09,126.1Zm.13-13.94a4.93,4.93,0,0,0-3.51,1.53,6.34,6.34,0,0,0-1.79,4.17h0a6.39,6.39,0,0,0,1.35,4.34,4.92,4.92,0,0,0,3.58,1.9,4.86,4.86,0,0,0,3.75-1.52,6.35,6.35,0,0,0,1.79-4.18,6.42,6.42,0,0,0-1.35-4.34,4.91,4.91,0,0,0-3.58-1.89Zm-6.3,5.65h0Z" fill="#093f68"></path><path d="M256.78,142c13.68.71,26.79-15.54,27.48-29L280.94,114l.61-9.52s-16.91-5.41-14.24-13.26c0,0-5.33,5.71-12.55,5.32-13.28-.72-18.3-4.5-18.3-4.5l-1.25,24.34C234.52,129.86,243.1,141.25,256.78,142Z" fill="#ffc9b0"></path><path d="M257.62,143c-.3,0-.6,0-.89,0a23,23,0,0,1-16.9-8.36,26.48,26.48,0,0,1-5.62-18.24L235.46,92a1,1,0,0,1,1.6-.75c.05,0,5,3.62,17.75,4.3,6.66.35,11.72-5,11.77-5a1,1,0,0,1,1.68,1,4.23,4.23,0,0,0,.29,3.41c2.56,5.08,13.2,8.54,13.3,8.57a1,1,0,0,1,.7,1l-.51,8L284,112a1,1,0,0,1,.91.16,1,1,0,0,1,.39.84c-.35,6.81-3.76,14.45-9.13,20.43S264,143,257.62,143ZM237.38,93.75l-1.17,22.71a24.49,24.49,0,0,0,5.17,16.87A21,21,0,0,0,256.83,141h0c6,.32,12.49-2.92,17.82-8.86,4.68-5.22,7.79-11.74,8.49-17.73l-1.89.61a1,1,0,0,1-1.3-1l.55-8.75c-2.61-.93-11.2-4.3-13.74-9.33a6.66,6.66,0,0,1-.69-2.21,17.5,17.5,0,0,1-11.37,3.9C245.16,97,239.77,95,237.38,93.75Z" fill="#093f68"></path><ellipse cx="264.35" cy="114.84" rx="2.25" ry="2.26" transform="translate(136.06 372.94) rotate(-87.05)" fill="#093f68"></ellipse><circle cx="242.63" cy="113.73" r="2.26" fill="#093f68"></circle><path d="M252.68,120.74a9.06,9.06,0,0,1-2.56-.31,1.49,1.49,0,0,1-1-.91c-.6-1.54,1.16-4.92,2.27-6.8a1,1,0,0,1,1.72,1,17.89,17.89,0,0,0-2.13,4.85,10.89,10.89,0,0,0,3,.08,1,1,0,0,1,.24,2C254.22,120.66,253.55,120.74,252.68,120.74ZM251,118.82h0Z" fill="#093f68"></path><path d="M273.16,110.45H273l-10.74-.92a2,2,0,0,1-1.82-2.16,2,2,0,0,1,2.16-1.83l10.74.92a2,2,0,0,1-.17,4Z" fill="#093f68"></path><path d="M251.48,108.22h-.22l-10.71-1.14a2,2,0,0,1,.42-4l10.72,1.15a2,2,0,0,1-.21,4Z" fill="#093f68"></path><path d="M279.27,114.42s6.17-3.82,9.1,1.65-.62,14.36-10.33,11.22" fill="#ffc9b0"></path><path d="M281.82,128.93a13.44,13.44,0,0,1-4.09-.69,1,1,0,1,1,.61-1.91c3.63,1.18,6.63.63,8.44-1.54a7.67,7.67,0,0,0,.71-8.25,4.21,4.21,0,0,0-2.63-2.27c-2.35-.64-5,1-5.06,1a1,1,0,0,1-1.38-.33,1,1,0,0,1,.33-1.37c.13-.09,3.42-2.09,6.62-1.23a6.17,6.17,0,0,1,3.88,3.26,9.59,9.59,0,0,1-.94,10.47A8.15,8.15,0,0,1,281.82,128.93Z" fill="#093f68"></path><path d="M254.77,131.37a14.82,14.82,0,0,1-8.16-2.8,1,1,0,0,1,1.21-1.59s4.09,3,8.49,2.25c2.6-.47,4.85-2.19,6.69-5.11a1,1,0,0,1,1.69,1.07c-2.16,3.42-4.86,5.44-8,6A10.19,10.19,0,0,1,254.77,131.37Z" fill="#093f68"></path><path d="M242.14,185.43a1,1,0,0,1-1-.88l-1.27-10.66a25.83,25.83,0,0,1-2.21-7,10.35,10.35,0,0,1,3.68-9.27,1,1,0,0,1,1.2,1.6,8.35,8.35,0,0,0-2.89,7.45,24.19,24.19,0,0,0,2.09,6.53,1.19,1.19,0,0,1,.1.32l1.29,10.83a1,1,0,0,1-.88,1.11Z" fill="#093f68"></path><path d="M271.53,185.43a1,1,0,0,1-1-1V158.38a1,1,0,0,1,2,0v26.05A1,1,0,0,1,271.53,185.43Z" fill="#093f68"></path><polygon points="276.8 217.42 128.71 217.42 128.71 181.85 311.44 181.85 276.8 217.42" fill="#68e1fd"></polygon><path d="M276.8,218.42H128.71a1,1,0,0,1-1-1V181.85a1,1,0,0,1,1-1H311.44a1,1,0,0,1,.71,1.69l-34.63,35.58A1,1,0,0,1,276.8,218.42Zm-147.09-2H276.38l32.69-33.57H129.71Z" fill="#093f68"></path><path d="M156.65,145.34s5.63,7.36,3.54,10.29-7.13.6-7.13.6" fill="#ffc9b0"></path><path d="M156.93,158.12a11.32,11.32,0,0,1-4.29-1,1,1,0,0,1,.84-1.81c.05,0,4.32,1.95,5.9-.28,1.14-1.6-1.37-6.29-3.52-9.11a1,1,0,0,1,1.59-1.21c1,1.33,6,8.11,3.56,11.48A4.74,4.74,0,0,1,156.93,158.12Z" fill="#093f68"></path><path d="M169.39,201.18a.41.41,0,0,1-.06-.11c-1.83-3.92,2.25-10,3.88-13.52.36-.77.91-1.65,1.76-1.62s1.29.89,1.54,1.66a20.1,20.1,0,0,1,.6,2.77c3.1-1.06,6.28-1.77,9.41-3a7.26,7.26,0,0,1,2.95-.67,2.48,2.48,0,0,1,2.32,1.66,3.08,3.08,0,0,1-.75,2.44c-2.56,3.46-7.73,4.89-9,9.31-.82,2.89-.83,5.56-2.08,8.52C180,208.65,170.48,202.82,169.39,201.18Z" fill="#ffc9b0"></path><path d="M180,209.66a.9.9,0,0,1-.38-.08.69.69,0,0,1-.19-.1l-.35-.22c-8.46-5.3-10-6.83-10.51-7.53h0a2,2,0,0,1-.14-.23c-1.69-3.64.9-8.59,2.79-12.2.41-.79.8-1.53,1.1-2.17.69-1.51,1.59-2.26,2.7-2.2s2,.88,2.45,2.35a14.3,14.3,0,0,1,.44,1.77c1-.32,2-.6,2.93-.88,1.76-.51,3.58-1,5.33-1.7a8.07,8.07,0,0,1,3.37-.74,3.46,3.46,0,0,1,3.23,2.42,3.91,3.91,0,0,1-.92,3.28,18.55,18.55,0,0,1-4.14,3.72c-2.07,1.52-4,2.95-4.67,5.26a32.56,32.56,0,0,0-.69,3.23,23.91,23.91,0,0,1-1.43,5.41A1,1,0,0,1,180,209.66Zm-9.77-9c.2.29,1.44,1.6,9.27,6.53a27.39,27.39,0,0,0,.88-3.87c.2-1.1.4-2.24.73-3.42.84-3,3.17-4.68,5.42-6.33a17.16,17.16,0,0,0,3.72-3.3,2.22,2.22,0,0,0,.57-1.61,1.51,1.51,0,0,0-1.4-.9,6.51,6.51,0,0,0-2.54.61c-1.83.69-3.69,1.23-5.48,1.75-1.31.38-2.66.77-4,1.21a1,1,0,0,1-.84-.09,1,1,0,0,1-.47-.69l0-.12a17.25,17.25,0,0,0-.54-2.5c-.22-.66-.5-1-.64-1s-.31,0-.8,1c-.31.67-.71,1.43-1.14,2.26C171.29,193.46,169,197.89,170.22,200.63Z" fill="#093f68"></path><ellipse cx="104.63" cy="154.3" rx="9.06" ry="7.81" transform="translate(-12.57 9.32) rotate(-4.81)" fill="#ffc9b0"></ellipse><path d="M104.39,163.12a10.69,10.69,0,0,1-6.27-2,8.24,8.24,0,0,1-3.52-6h0a8.26,8.26,0,0,1,2.47-6.51,11.12,11.12,0,0,1,14.07-1.18,8.06,8.06,0,0,1,1,12.51,10.79,10.79,0,0,1-6.82,3.12C105,163.11,104.71,163.12,104.39,163.12Zm.48-15.64-.81,0A8.82,8.82,0,0,0,98.49,150,6.25,6.25,0,0,0,96.6,155h0a6.26,6.26,0,0,0,2.69,4.56,8.84,8.84,0,0,0,5.91,1.55,8.75,8.75,0,0,0,5.57-2.52,6.07,6.07,0,0,0-.8-9.49A8.65,8.65,0,0,0,104.87,147.48Z" fill="#093f68"></path><path d="M140.52,117.67c8.87,12.64,13.52,4.67,14.89,1.92l2.39,28.35a27.33,27.33,0,0,1-22.58,29.22l.48,5.81a4.66,4.66,0,1,1-9.29.79L126,178.3c-16.57.77-25.83-12.77-26.9-25.42l2.15-25.58S112.74,134.81,140.52,117.67Z" fill="#ffc9b0"></path><path d="M131.05,189a5.67,5.67,0,0,1-5.64-5.19l-.38-4.51a24.75,24.75,0,0,1-19.08-8A31.21,31.21,0,0,1,98.06,153a.43.43,0,0,1,0-.16l2.14-25.58a1,1,0,0,1,1.54-.76c.11.07,11.5,6.87,38.25-9.64a1,1,0,0,1,1.35.28c3.1,4.43,6,6.66,8.36,6.5,1.79-.14,3.41-1.64,4.82-4.46a1,1,0,0,1,1.89.37l2.39,28.34A28.51,28.51,0,0,1,136.29,178l.41,4.92a5.67,5.67,0,0,1-5.17,6.12ZM126,177.3a1,1,0,0,1,1,.91l.46,5.46a3.66,3.66,0,1,0,7.3-.61l-.49-5.82a1,1,0,0,1,.83-1.07A26.48,26.48,0,0,0,156.8,148l-2.13-25.34a6.75,6.75,0,0,1-4.82,2.91c-3,.22-6.22-2-9.6-6.58-22.41,13.6-34.3,11.28-38.18,9.81l-2,24.06c1.1,12.7,10.34,25.15,25.84,24.42Z" fill="#093f68"></path><path d="M141.75,129c1.72,0,14.57,2.08,15.74.69a8.92,8.92,0,0,0,1.83-4.75,16.36,16.36,0,0,0-4.23-12.65,18.14,18.14,0,0,0-9.41-5.57c-1.1-.21-10,.48-9.74.88-2-3.79-5.95-6.15-10-7.41-15.79-4.88-30.38,3-35.31,18.59-2.33,7.32-2.39,15.18-1.55,22.81.87,7.91,2.81,15.93,7.44,22.4,8.87,12.4,27.28,14.18,38.91,5.34C146.37,161,141.16,135.07,141.75,129Z" fill="#725858"></path><path d="M118.57,175.83a30.53,30.53,0,0,1-4.56-.34,27.19,27.19,0,0,1-18.33-10.94c-4.1-5.73-6.52-13-7.62-22.87-1-9.09-.48-16.69,1.59-23.22,5.11-16.13,20.49-24.22,36.57-19.24,4.65,1.44,8.24,4,10.2,7.18a59.62,59.62,0,0,1,9.45-.68,18.92,18.92,0,0,1,10,5.88A17.38,17.38,0,0,1,160.31,125a9.74,9.74,0,0,1-2.05,5.27c-1,1.14-4,1.13-13.64,0l-1.92-.23c0,1.4.13,3.42.29,5.68.72,10.33,1.91,27.61-7,34.37A28.83,28.83,0,0,1,118.57,175.83Zm-1.95-76.11c-11.5,0-21.2,7.16-25.06,19.34-2,6.27-2.48,13.59-1.51,22.4,1,9.51,3.36,16.48,7.26,21.93a25.22,25.22,0,0,0,17,10.12,27.21,27.21,0,0,0,20.49-5c8-6.11,6.88-22.72,6.2-32.64a50.51,50.51,0,0,1-.24-7,1,1,0,0,1,1-.9c.48,0,1.57.14,3.08.32,2.93.35,10.64,1.28,11.93.66a7.93,7.93,0,0,0,1.55-4.15,15.35,15.35,0,0,0-4-11.86,17.23,17.23,0,0,0-8.86-5.27,58.3,58.3,0,0,0-9,.69.42.42,0,0,1-.14.09,1,1,0,0,1-1.35-.42h0c-1.6-3.07-5-5.53-9.43-6.91A30.43,30.43,0,0,0,116.62,99.72Z" fill="#093f68"></path><path d="M168,198.28l-3.06,9.36c-3.22-13.47-11.32-27.72-19.63-27.72H111.42A10.41,10.41,0,0,0,101,190.33v40.86h74.84l7.64-28.31Z" fill="#f56132"></path><path d="M175.85,232.19H101a1,1,0,0,1-1-1V190.33a11.42,11.42,0,0,1,11.41-11.41H145.3c8.24,0,16,12.45,19.73,25.21l2-6.16a1,1,0,0,1,1.23-.65l15.5,4.6a1,1,0,0,1,.68,1.22l-7.63,28.31A1,1,0,0,1,175.85,232.19Zm-73.84-2h73.07l7.19-26.63-13.63-4L165.89,208a1,1,0,0,1-1,.69,1,1,0,0,1-.94-.76c-3.17-13.25-11-27-18.66-27H111.42a9.42,9.42,0,0,0-9.41,9.41Z" fill="#093f68"></path><line x1="148.91" y1="231.19" x2="144.81" y2="207.29" fill="#68e1fd"></line><path d="M148.91,232.19a1,1,0,0,1-1-.83l-4.1-23.9a1,1,0,0,1,.81-1.16,1,1,0,0,1,1.16.82l4.1,23.9a1,1,0,0,1-.82,1.15Z" fill="#093f68"></path><path d="M145.23,141.49c-3.85-1.05-9.8.12-9.11,8.07.37,4.29,3.29,7.77,7.24,7.73" fill="#ffc9b0"></path><path d="M143.29,158.29c-4.3,0-7.73-3.62-8.17-8.65-.38-4.35,1.17-6.63,2.54-7.77,2.31-1.93,5.56-2,7.83-1.35a1,1,0,1,1-.53,1.93,6.85,6.85,0,0,0-6,1c-1.45,1.22-2.07,3.26-1.82,6.07.34,4,2.94,6.82,6.18,6.82h.06a1,1,0,0,1,0,2Z" fill="#093f68"></path><circle cx="153.1" cy="142.27" r="1.58" fill="#093f68"></circle><path d="M156,139.19a1.92,1.92,0,0,1-1-.28c-.07,0-2.72-1.51-4.56-.23a2,2,0,1,1-2.29-3.28c4-2.77,8.68-.05,8.87.06a2,2,0,0,1-1,3.73Z" fill="#093f68"></path><path d="M170.07,225.71a1,1,0,0,1-1-.71L164,207.93a1,1,0,0,1,1.91-.57L171,224.43a1,1,0,0,1-.67,1.24A1,1,0,0,1,170.07,225.71Z" fill="#093f68"></path><path d="M111,232.19a1,1,0,0,1-1-.9l-2.49-25.64a1,1,0,1,1,2-.19L112,231.09a1,1,0,0,1-.89,1.09Z" fill="#093f68"></path><path d="M153.11,163.18h-.06a50.45,50.45,0,0,1-6.39-.77,1,1,0,1,1,.41-2,47.91,47.91,0,0,0,6.09.73,1,1,0,0,1,0,2Z" fill="#093f68"></path><polygon points="239.84 187.51 216.65 206.7 243.28 206.7 265.84 186.96 239.84 187.51" fill="#fff"></polygon><path d="M243.28,207.7H216.65a1,1,0,0,1-.63-1.77l23.18-19.19a1.1,1.1,0,0,1,.62-.23l26-.55a1.07,1.07,0,0,1,1,.64,1,1,0,0,1-.28,1.11l-22.56,19.74A1,1,0,0,1,243.28,207.7Zm-23.85-2H242.9L263.12,188l-22.91.48Z" fill="#093f68"></path><path d="M241.12,203.26H226.34a1,1,0,0,1,0-2h14.78a1,1,0,0,1,0,2Z" fill="#dfeaef"></path><path d="M246.47,200.07H231.69a1,1,0,0,1,0-2h14.78a1,1,0,0,1,0,2Z" fill="#dfeaef"></path><path d="M249.93,196.22H235.14a1,1,0,0,1,0-2h14.79a1,1,0,0,1,0,2Z" fill="#dfeaef"></path><path d="M254.43,192.56H239.65a1,1,0,0,1,0-2h14.78a1,1,0,0,1,0,2Z" fill="#dfeaef"></path><path d="M208.25,72.88H171.32a10.66,10.66,0,0,0-10.66,10.66v21.78A10.66,10.66,0,0,0,171.32,116h0l-2.48,9.79,9-9.79h30.43a10.66,10.66,0,0,0,10.66-10.66V83.54A10.67,10.67,0,0,0,208.25,72.88Z" fill="#fff"></path><path d="M168.86,126.77a1,1,0,0,1-1-1.25l2.18-8.6a11.69,11.69,0,0,1-10.41-11.6V83.54a11.67,11.67,0,0,1,11.66-11.66h36.93a11.67,11.67,0,0,1,11.66,11.66v21.78A11.68,11.68,0,0,1,208.25,117h-30l-8.67,9.45A1,1,0,0,1,168.86,126.77Zm2.46-52.89a9.67,9.67,0,0,0-9.66,9.66v21.78a9.68,9.68,0,0,0,9.66,9.67,1,1,0,0,1,.8.38,1,1,0,0,1,.18.86l-1.5,5.94,6.29-6.86a1,1,0,0,1,.73-.32h30.43a9.68,9.68,0,0,0,9.66-9.67V83.54a9.68,9.68,0,0,0-9.66-9.66Z" fill="#093f68"></path><path d="M225.57,142.49s-5.17,1.7-8.92,2.91v-4.5A10.66,10.66,0,0,0,206,130.24H182.7A10.67,10.67,0,0,0,172,140.9v11.69a10.67,10.67,0,0,0,10.67,10.67H206a10.67,10.67,0,0,0,10.66-10.67v-1.7Z" fill="#fff"></path><path d="M206,164.25H182.7A11.68,11.68,0,0,1,171,152.59V140.9a11.68,11.68,0,0,1,11.67-11.66H206a11.67,11.67,0,0,1,11.66,11.66V144l7.6-2.49a1,1,0,0,1,1.18.44,1,1,0,0,1-.18,1.24l-8.6,8.11v1.26A11.67,11.67,0,0,1,206,164.25Zm-23.29-33A9.68,9.68,0,0,0,173,140.9v11.69a9.68,9.68,0,0,0,9.67,9.66H206a9.67,9.67,0,0,0,9.66-9.66v-1.7a1,1,0,0,1,.32-.72l5.65-5.33L217,146.35a1,1,0,0,1-.9-.14,1,1,0,0,1-.41-.81v-4.5a9.67,9.67,0,0,0-9.66-9.66Z" fill="#093f68"></path><path d="M206.13,84.91H194.81a1,1,0,0,1,0-2h11.32a1,1,0,0,1,0,2Z" fill="#dfeaef"></path><path d="M185.86,84.91H174.41a1,1,0,0,1,0-2h11.45a1,1,0,0,1,0,2Z" fill="#dfeaef"></path><path d="M206.13,95H174.41a1,1,0,0,1,0-2h31.72a1,1,0,0,1,0,2Z" fill="#dfeaef"></path><path d="M195.06,105.18H174.41a1,1,0,0,1,0-2h20.65a1,1,0,0,1,0,2Z" fill="#dfeaef"></path><path d="M206.13,143H183.49a1,1,0,0,1,0-2h22.64a1,1,0,0,1,0,2Z" fill="#dfeaef"></path><path d="M196.84,153.85H183.49a1,1,0,0,1,0-2h13.35a1,1,0,0,1,0,2Z" fill="#dfeaef"></path></g></svg>