<?xml version="1.0" encoding="utf-8"?>
<!-- Generator: Adobe Illustrator 23.0.5, SVG Export Plug-In . SVG Version: 6.00 Build 0)  -->
<svg version="1.0" id="Capa_1" xmlns="http://www.w3.org/2000/svg" xmlns:xlink="http://www.w3.org/1999/xlink" x="0px" y="0px"
	 viewBox="0 0 15 14" style="enable-background:new 0 0 15 14;" xml:space="preserve">
<style type="text/css">
	.st0{fill:#8B0003;}
	.st1{fill:none;stroke:#000000;stroke-miterlimit:10;}
</style>
<path class="st0" d="M18.88,8.6c-0.24-2.02-0.95-3.97-1.14-5.99c-0.18-1.93,0.17-3.58-0.86-5.39c-1.15-2.03-3.48-2.74-5.65-2.3
	C9.88-4.8,8.57-3.78,7.5-2.86c-1.11-0.46-2.42-0.41-3.62,0C3.07-3.8,1.85-4.38,0.19-4.27C-0.1-4.25-0.38-4.23-0.67-4.21
	c-3.44,0.23-6.68,4.19-4.32,7.52c0.21,0.3,0.44,0.6,0.66,0.9c-1.12,1.08-1.73,2.7-1.21,4.67c0.26,0.98,0.11,2.07,0.22,3.09
	c0.22,1.95,1.52,3.85,3.23,4.68c0.12,0.13,0.23,0.27,0.36,0.39c2.26,2.12,5.7,1.8,8.56,1.93c1.07,0.05,1.96-0.19,2.67-0.62
	c1.11,0.4,2.3,0.55,3.6,0.31C18,17.76,19.41,13.01,18.88,8.6z"/>
<path class="st1" d="M4.35,6.3C3.84,6.06,3.65,5.32,3.98,4.87s1.08-0.52,1.48-0.11c0.2,0.21,0.3,0.49,0.4,0.77
	C6.35,6.98,6.85,8.46,6.95,10c0.2-1.9,2.09-3.29,2.28-5.19c0.04-0.36,0-0.74-0.22-1.02c-0.22-0.28-0.67-0.4-0.95-0.18
	C7.84,3.8,7.8,4.13,7.8,4.43C7.81,6.1,8.48,7.75,8.25,9.4c0.1-0.84,0.11-1.69,0.03-2.54c0.28,0.25,0.63,0.42,1,0.5
	c0.08,0.02,0.17,0.03,0.24,0.09C9.68,7.57,9.65,7.81,9.7,8c0.09,0.31,0.42,0.49,0.74,0.56c0.32,0.07,0.65,0.06,0.96,0.16"/>
<ellipse class="st1" cx="7.5" cy="7" rx="7" ry="6.5"/>
</svg>
